<svg version="1.1" xmlns="http://www.w3.org/2000/svg" xmlns:xlink="http://www.w3.org/1999/xlink" viewBox="0 0 1000 1000">
<g transform="translate(136, 551) rotate(114)" fill="none" stroke="#eee" stroke-width="4">
<path fill="#fff" d="M 55,5 A 50,50 0 1,1 5,55"></path>
<path fill="#f4f4f4" d="M 55,5 A 50,50 0 0,0 5,55 l 50,0 0,-50 z"></path>
</g>

<g transform="translate(253, 900) rotate(330)" fill="none" stroke="#eee" stroke-width="4">
<path fill="#fff" d="M 60,10 l -40,0 q -10,0 -10,10 l 0,90 q 0,10 10,10 l 60,0 q 10,0 10,-10 l 0,-70z l 0,20 q 0,10 10,10 l 20,0"></path>
</g>

<g transform="translate(80, 482) rotate(235)" fill="none" stroke="#eee" stroke-width="4">
<path fill="#fff" d="M 60,10 l -40,0 q -10,0 -10,10 l 0,90 q 0,10 10,10 l 60,0 q 10,0 10,-10 l 0,-70z l 0,20 q 0,10 10,10 l 20,0"></path>
</g>

<g transform="translate(711, 548) rotate(52)" fill="none" stroke="#eee" stroke-width="4">
<path fill="#fff" d="M 5,5 l 80,0 0,100 -80,0 0,-100 m 10,10 l 40,0 m -40,10 l 60,0 m -60,10 l 50,0 m -50,20 l 60,0 m -60,10 l 30,0 m -30,10 l 60,0 m -60,10 l 60,0 m -60,10 l 30,0"></path>
</g>

<g transform="translate(692, 337) rotate(360)" fill="none" stroke="#eee" stroke-width="4">
<path fill="#fff" d="M 5,5 l 80,0 0,100 -80,0 0,-100 m 10,10 l 40,0 m -40,10 l 60,0 m -60,10 l 50,0 m -50,20 l 60,0 m -60,10 l 30,0 m -30,10 l 60,0 m -60,10 l 60,0 m -60,10 l 30,0"></path>
</g>

<g transform="translate(406, 177) rotate(211)" fill="none" stroke="#eee" stroke-width="4">
<path fill="#fff" d="M 60,10 l -40,0 q -10,0 -10,10 l 0,90 q 0,10 10,10 l 60,0 q 10,0 10,-10 l 0,-70z l 0,20 q 0,10 10,10 l 20,0"></path>
</g>

<g transform="translate(354, 157) rotate(66)" fill="none" stroke="#eee" stroke-width="4">
<path fill="#fff" d="M 55,5 A 50,50 0 1,1 5,55"></path>
<path fill="#f4f4f4" d="M 55,5 A 50,50 0 0,0 5,55 l 50,0 0,-50 z"></path>
</g>

<g transform="translate(148, 601) rotate(67)" fill="none" stroke="#eee" stroke-width="4">
<path fill="#fff" d="M 5,5 l 80,0 0,100 -80,0 0,-100 m 10,10 l 40,0 m -40,10 l 60,0 m -60,10 l 50,0 m -50,20 l 60,0 m -60,10 l 30,0 m -30,10 l 60,0 m -60,10 l 60,0 m -60,10 l 30,0"></path>
</g>

<g transform="translate(503, 828) rotate(110)" fill="none" stroke="#eee" stroke-width="4">
<path fill="#fff" d="M 55,5 A 50,50 0 1,1 5,55"></path>
<path fill="#f4f4f4" d="M 55,5 A 50,50 0 0,0 5,55 l 50,0 0,-50 z"></path>
</g>

<g transform="translate(389, 232) rotate(320)" fill="none" stroke="#eee" stroke-width="4">
    <path fill="#fff" d="M 5,5 l 0,100 100,0 0, -100z"></path>
    <path stroke="#f4f4f4" d="M 5,25 l 100,0 m -100,20 l 100,0 m -100,20 l 100,0 m -100,20 l 100,0 "></path>
    <path fill="#f4f4f4" d="M 5, 105 l 10,-40 10,10 10,-50 10,70 10,5 10,-50 10,10 10,20 10,10 10,15z"></path>
</g>

<g transform="translate(787, 187) rotate(334)" fill="none" stroke="#eee" stroke-width="4">
    <path fill="#fff" d="M 5,5 l 0,100 100,0 0, -100z"></path>
    <path stroke="#f4f4f4" d="M 5,25 l 100,0 m -100,20 l 100,0 m -100,20 l 100,0 m -100,20 l 100,0 "></path>
    <path fill="#f4f4f4" d="M 5, 105 l 10,-40 10,10 10,-50 10,70 10,5 10,-50 10,10 10,20 10,10 10,15z"></path>
</g>

<g transform="translate(776, 742) rotate(48)" fill="none" stroke="#eee" stroke-width="4">
<path fill="#fff" d="M 60,10 l -40,0 q -10,0 -10,10 l 0,90 q 0,10 10,10 l 60,0 q 10,0 10,-10 l 0,-70z l 0,20 q 0,10 10,10 l 20,0"></path>
</g>

<g transform="translate(654, 557) rotate(153)" fill="none" stroke="#eee" stroke-width="4">
<path fill="#fff" d="M 5,5 l 80,0 0,100 -80,0 0,-100 m 10,10 l 40,0 m -40,10 l 60,0 m -60,10 l 50,0 m -50,20 l 60,0 m -60,10 l 30,0 m -30,10 l 60,0 m -60,10 l 60,0 m -60,10 l 30,0"></path>
</g>

<g transform="translate(81, 244) rotate(289)" fill="none" stroke="#eee" stroke-width="4">
<path fill="#fff" d="M 60,10 l -40,0 q -10,0 -10,10 l 0,90 q 0,10 10,10 l 60,0 q 10,0 10,-10 l 0,-70z l 0,20 q 0,10 10,10 l 20,0"></path>
</g>

<g transform="translate(681, 158) rotate(83)" fill="none" stroke="#eee" stroke-width="4">
<path fill="#fff" d="M 5,5 l 80,0 0,100 -80,0 0,-100 m 10,10 l 40,0 m -40,10 l 60,0 m -60,10 l 50,0 m -50,20 l 60,0 m -60,10 l 30,0 m -30,10 l 60,0 m -60,10 l 60,0 m -60,10 l 30,0"></path>
</g>

<g transform="translate(283, 830) rotate(338)" fill="none" stroke="#eee" stroke-width="4">
<path fill="#fff" d="M 5,5 l 80,0 0,100 -80,0 0,-100 m 10,10 l 40,0 m -40,10 l 60,0 m -60,10 l 50,0 m -50,20 l 60,0 m -60,10 l 30,0 m -30,10 l 60,0 m -60,10 l 60,0 m -60,10 l 30,0"></path>
</g>

<g transform="translate(415, 400) rotate(179)" fill="none" stroke="#eee" stroke-width="4">
<path fill="#fff" d="M 60,10 l -40,0 q -10,0 -10,10 l 0,90 q 0,10 10,10 l 60,0 q 10,0 10,-10 l 0,-70z l 0,20 q 0,10 10,10 l 20,0"></path>
</g>

<g transform="translate(918, 115) rotate(178)" fill="none" stroke="#eee" stroke-width="4">
<path fill="#fff" d="M 5,5 l 80,0 0,100 -80,0 0,-100 m 10,10 l 40,0 m -40,10 l 60,0 m -60,10 l 50,0 m -50,20 l 60,0 m -60,10 l 30,0 m -30,10 l 60,0 m -60,10 l 60,0 m -60,10 l 30,0"></path>
</g>

<g transform="translate(849, 667) rotate(237)" fill="none" stroke="#eee" stroke-width="4">
<path fill="#fff" d="M 55,5 A 50,50 0 1,1 5,55"></path>
<path fill="#f4f4f4" d="M 55,5 A 50,50 0 0,0 5,55 l 50,0 0,-50 z"></path>
</g>

<g transform="translate(756, 779) rotate(217)" fill="none" stroke="#eee" stroke-width="4">
<path fill="#fff" d="M 60,10 l -40,0 q -10,0 -10,10 l 0,90 q 0,10 10,10 l 60,0 q 10,0 10,-10 l 0,-70z l 0,20 q 0,10 10,10 l 20,0"></path>
</g>

<g transform="translate(364, 322) rotate(191)" fill="none" stroke="#eee" stroke-width="4">
<path fill="#fff" d="M 60,10 l -40,0 q -10,0 -10,10 l 0,90 q 0,10 10,10 l 60,0 q 10,0 10,-10 l 0,-70z l 0,20 q 0,10 10,10 l 20,0"></path>
</g>

<g transform="translate(587, 120) rotate(90)" fill="none" stroke="#eee" stroke-width="4">
<path fill="#fff" d="M 55,5 A 50,50 0 1,1 5,55"></path>
<path fill="#f4f4f4" d="M 55,5 A 50,50 0 0,0 5,55 l 50,0 0,-50 z"></path>
</g>

<g transform="translate(115, 368) rotate(274)" fill="none" stroke="#eee" stroke-width="4">
<path fill="#fff" d="M 5,5 l 80,0 0,100 -80,0 0,-100 m 10,10 l 40,0 m -40,10 l 60,0 m -60,10 l 50,0 m -50,20 l 60,0 m -60,10 l 30,0 m -30,10 l 60,0 m -60,10 l 60,0 m -60,10 l 30,0"></path>
</g>

<g transform="translate(412, 642) rotate(60)" fill="none" stroke="#eee" stroke-width="4">
    <path fill="#fff" d="M 5,5 l 0,100 100,0 0, -100z"></path>
    <path stroke="#f4f4f4" d="M 5,25 l 100,0 m -100,20 l 100,0 m -100,20 l 100,0 m -100,20 l 100,0 "></path>
    <path fill="#f4f4f4" d="M 5, 105 l 10,-40 10,10 10,-50 10,70 10,5 10,-50 10,10 10,20 10,10 10,15z"></path>
</g>

<g transform="translate(229, 622) rotate(313)" fill="none" stroke="#eee" stroke-width="4">
    <path fill="#fff" d="M 5,5 l 0,100 100,0 0, -100z"></path>
    <path stroke="#f4f4f4" d="M 5,25 l 100,0 m -100,20 l 100,0 m -100,20 l 100,0 m -100,20 l 100,0 "></path>
    <path fill="#f4f4f4" d="M 5, 105 l 10,-40 10,10 10,-50 10,70 10,5 10,-50 10,10 10,20 10,10 10,15z"></path>
</g>

<g transform="translate(831, 280) rotate(4)" fill="none" stroke="#eee" stroke-width="4">
<path fill="#fff" d="M 5,5 l 80,0 0,100 -80,0 0,-100 m 10,10 l 40,0 m -40,10 l 60,0 m -60,10 l 50,0 m -50,20 l 60,0 m -60,10 l 30,0 m -30,10 l 60,0 m -60,10 l 60,0 m -60,10 l 30,0"></path>
</g>

<g transform="translate(848, 614) rotate(65)" fill="none" stroke="#eee" stroke-width="4">
<path fill="#fff" d="M 60,10 l -40,0 q -10,0 -10,10 l 0,90 q 0,10 10,10 l 60,0 q 10,0 10,-10 l 0,-70z l 0,20 q 0,10 10,10 l 20,0"></path>
</g>

<g transform="translate(125, 877) rotate(331)" fill="none" stroke="#eee" stroke-width="4">
<path fill="#fff" d="M 55,5 A 50,50 0 1,1 5,55"></path>
<path fill="#f4f4f4" d="M 55,5 A 50,50 0 0,0 5,55 l 50,0 0,-50 z"></path>
</g>

<g transform="translate(741, 485) rotate(318)" fill="none" stroke="#eee" stroke-width="4">
<path fill="#fff" d="M 60,10 l -40,0 q -10,0 -10,10 l 0,90 q 0,10 10,10 l 60,0 q 10,0 10,-10 l 0,-70z l 0,20 q 0,10 10,10 l 20,0"></path>
</g>

<g transform="translate(849, 312) rotate(201)" fill="none" stroke="#eee" stroke-width="4">
<path fill="#fff" d="M 60,10 l -40,0 q -10,0 -10,10 l 0,90 q 0,10 10,10 l 60,0 q 10,0 10,-10 l 0,-70z l 0,20 q 0,10 10,10 l 20,0"></path>
</g>

<g transform="translate(613, 423) rotate(205)" fill="none" stroke="#eee" stroke-width="4">
    <path fill="#fff" d="M 5,5 l 0,100 100,0 0, -100z"></path>
    <path stroke="#f4f4f4" d="M 5,25 l 100,0 m -100,20 l 100,0 m -100,20 l 100,0 m -100,20 l 100,0 "></path>
    <path fill="#f4f4f4" d="M 5, 105 l 10,-40 10,10 10,-50 10,70 10,5 10,-50 10,10 10,20 10,10 10,15z"></path>
</g>

<g transform="translate(879, 389) rotate(205)" fill="none" stroke="#eee" stroke-width="4">
<path fill="#fff" d="M 5,5 l 80,0 0,100 -80,0 0,-100 m 10,10 l 40,0 m -40,10 l 60,0 m -60,10 l 50,0 m -50,20 l 60,0 m -60,10 l 30,0 m -30,10 l 60,0 m -60,10 l 60,0 m -60,10 l 30,0"></path>
</g>

<g transform="translate(428, 671) rotate(268)" fill="none" stroke="#eee" stroke-width="4">
<path fill="#fff" d="M 5,5 l 80,0 0,100 -80,0 0,-100 m 10,10 l 40,0 m -40,10 l 60,0 m -60,10 l 50,0 m -50,20 l 60,0 m -60,10 l 30,0 m -30,10 l 60,0 m -60,10 l 60,0 m -60,10 l 30,0"></path>
</g>
</svg>